<svg width="9" height="5" viewBox="0 0 9 5" fill="none" xmlns="http://www.w3.org/2000/svg">
<path d="M8.46191 0.962382L4.71191 4.71238C4.65966 4.76482 4.59756 4.80643 4.52919 4.83482C4.46081 4.86321 4.38751 4.87783 4.31348 4.87783C4.23944 4.87783 4.16614 4.86321 4.09776 4.83482C4.02939 4.80643 3.9673 4.76482 3.91504 4.71238L0.165038 0.962382C0.0593661 0.85671 -1.57464e-09 0.713387 0 0.563944C1.57464e-09 0.414501 0.0593661 0.271179 0.165038 0.165507C0.27071 0.0598348 0.414033 0.000468852 0.563476 0.00046885C0.712919 0.000468849 0.856241 0.0598348 0.961913 0.165507L4.31394 3.51754L7.66598 0.165038C7.77165 0.0593663 7.91497 0 8.06441 0C8.21386 0 8.35718 0.0593663 8.46285 0.165038C8.56852 0.270711 8.62789 0.414033 8.62789 0.563476C8.62789 0.712919 8.56852 0.856241 8.46285 0.961913L8.46191 0.962382Z" fill="black"/>
</svg>
