<svg width="90" height="99" viewBox="0 0 90 99" fill="none" xmlns="http://www.w3.org/2000/svg">
  <circle cx="45" cy="54" r="43.5" stroke="#4D5059" stroke-width="3" />
  <path
    d="M73.4858 51.8086C73.2145 51.4266 72.8553 51.1155 72.4386 50.9013C72.0219 50.6872 71.5598 50.5764 71.0913 50.5781H66.1719V45.6563C66.1719 44.873 65.8607 44.1219 65.3069 43.5681C64.7531 43.0143 64.002 42.7031 63.2188 42.7031H45.8273L38.7398 37.3875C38.2282 37.0049 37.6068 36.7978 36.9679 36.7969H23.8438C23.0605 36.7969 22.3094 37.108 21.7556 37.6618C21.2018 38.2156 20.8906 38.9668 20.8906 39.75V75.1875C20.8906 75.4486 20.9943 75.699 21.1789 75.8836C21.3635 76.0682 21.6139 76.1719 21.875 76.1719H65.9479C66.1545 76.1716 66.3557 76.1063 66.5231 75.9852C66.6905 75.8642 66.8156 75.6936 66.8806 75.4976L73.8918 54.4639C74.0417 54.0212 74.0831 53.5489 74.0125 53.0868C73.9418 52.6247 73.7612 52.1863 73.4858 51.8086ZM23.8438 38.7656H36.9679C37.1809 38.7656 37.3882 38.8347 37.5586 38.9625L44.9094 44.475C45.0798 44.6028 45.287 44.6719 45.5 44.6719H63.2188C63.4798 44.6719 63.7302 44.7756 63.9148 44.9602C64.0994 45.1448 64.2031 45.3952 64.2031 45.6563V50.5781H31.1675C30.5477 50.5784 29.9438 50.7737 29.4411 51.1363C28.9385 51.4989 28.5627 52.0105 28.367 52.5986L22.8594 69.1213V39.75C22.8594 39.4889 22.9631 39.2385 23.1477 39.0539C23.3323 38.8693 23.5827 38.7656 23.8438 38.7656ZM72.024 53.8413L65.2367 74.2031H23.2408L30.2422 53.2212C30.3068 53.0263 30.4308 52.8566 30.5967 52.7357C30.7626 52.6148 30.9622 52.5487 31.1675 52.5469H71.0938C71.2495 52.5471 71.4029 52.5843 71.5415 52.6554C71.6801 52.7265 71.7998 52.8294 71.8908 52.9558C71.9819 53.0821 72.0416 53.2283 72.0652 53.3822C72.0888 53.5362 72.0755 53.6935 72.0265 53.8413H72.024Z"
    fill="#1096E7"
  />
  <circle cx="42.5" cy="60.5" r="1.5" fill="#1096E7" />
  <circle cx="58.5" cy="60.5" r="1.5" fill="#1096E7" />
  <circle cx="50" cy="68" r="2" fill="#1096E7" />
  <circle cx="61" cy="33" r="4" stroke="#1096E7" stroke-width="2" />
  <rect
    x="43.7754"
    y="29.1387"
    width="9"
    height="2"
    rx="1"
    transform="rotate(-45 43.7754 29.1387)"
    fill="#1096E7"
  />
  <rect
    x="45.1895"
    y="22.7749"
    width="9"
    height="2"
    rx="1"
    transform="rotate(45 45.1895 22.7749)"
    fill="#1096E7"
  />
  <circle cx="83.5" cy="16.5" r="2.5" stroke="#4D5059" stroke-width="2" />
  <circle cx="69.5" cy="5.5" r="4.5" stroke="#4D5059" stroke-width="2" />
  <circle cx="6.5" cy="15.5" r="2.5" stroke="#4D5059" stroke-width="2" />
</svg>
