<svg xmlns="http://www.w3.org/2000/svg" width="17" height="15" viewBox="0 0 17 15" fill="none">
  <path d="M16.0094 1.38212C15.9345 1.32378 15.8473 1.28326 15.7545 1.26364C15.6616 1.24401 15.5655 1.24579 15.4734 1.26884L10.6977 2.46259L5.90469 0.0657121C5.77114 -0.00089746 5.61817 -0.0175245 5.47344 0.0188373L0.473437 1.26884C0.338225 1.30264 0.21819 1.38066 0.132408 1.4905C0.0466262 1.60035 2.11021e-05 1.73572 0 1.87509V13.1251C1.43787e-05 13.2201 0.0216712 13.3138 0.0633256 13.3991C0.10498 13.4845 0.165537 13.5592 0.240396 13.6176C0.315255 13.6761 0.402448 13.7167 0.495352 13.7364C0.588256 13.7561 0.684427 13.7544 0.776562 13.7313L5.55234 12.5376L10.3453 14.9345C10.4323 14.9774 10.528 14.9998 10.625 15.0001C10.6761 15.0001 10.727 14.9938 10.7766 14.9813L15.7766 13.7313C15.9118 13.6975 16.0318 13.6195 16.1176 13.5097C16.2034 13.3998 16.25 13.2645 16.25 13.1251V1.87509C16.25 1.78003 16.2284 1.68622 16.1867 1.60079C16.145 1.51537 16.0843 1.44058 16.0094 1.38212ZM6.25 1.63602L10 3.51102V13.3641L6.25 11.4891V1.63602ZM1.25 2.36337L5 1.42587V11.3868L1.25 12.3243V2.36337ZM15 12.6368L11.25 13.5743V3.61337L15 2.67587V12.6368Z" fill="#D5D8E0"/>
</svg>
