<svg width="12" height="12" viewBox="0 0 12 12" fill="none" xmlns="http://www.w3.org/2000/svg">
<path d="M11.0802 6.53431C11.008 6.46201 10.9176 6.41072 10.8185 6.38594C10.7194 6.36117 10.6154 6.36384 10.5177 6.39369C9.83526 6.59971 9.10971 6.61676 8.41834 6.44302C7.72698 6.26928 7.09568 5.91126 6.59171 5.40709C6.08773 4.90292 5.72995 4.27149 5.55648 3.58006C5.383 2.88863 5.40033 2.16308 5.60661 1.48072C5.6367 1.38299 5.63959 1.2789 5.61495 1.17965C5.59031 1.0804 5.53908 0.989748 5.46677 0.917438C5.39446 0.845128 5.3038 0.793899 5.20455 0.769259C5.10531 0.744618 5.00122 0.7475 4.90349 0.777594C3.87711 1.09306 2.9764 1.72426 2.32958 2.58134C1.76394 3.33317 1.419 4.22774 1.33347 5.16469C1.24793 6.10164 1.42519 7.04389 1.84534 7.88571C2.2655 8.72753 2.91193 9.43561 3.7121 9.9305C4.51227 10.4254 5.43452 10.6875 6.37536 10.6874C7.47381 10.6907 8.54299 10.3335 9.41895 9.67072C10.2756 9.02325 10.9061 8.12205 11.2208 7.09541C11.2504 6.99791 11.2529 6.89422 11.2282 6.7954C11.2034 6.69658 11.1523 6.60634 11.0802 6.53431ZM8.74208 8.77213C7.98388 9.34291 7.04503 9.62064 6.09833 9.55422C5.15162 9.48779 4.26076 9.08168 3.58969 8.41061C2.91862 7.73954 2.51251 6.84868 2.44608 5.90197C2.37965 4.95527 2.65739 4.01642 3.22817 3.25822C3.52852 2.86094 3.90074 2.52354 4.32552 2.26353C4.31708 2.38353 4.31286 2.504 4.31286 2.62494C4.31435 3.96714 4.8482 5.25394 5.79728 6.20302C6.74636 7.1521 8.03316 7.68595 9.37536 7.68744C9.4963 7.68744 9.61677 7.68322 9.73677 7.67478C9.47689 8.09965 9.13947 8.4719 8.74208 8.77213Z" fill="black"/>
</svg>
