<svg xmlns="http://www.w3.org/2000/svg" width="20" height="20" viewBox="0 0 20 20" fill="none">
  <path d="M18.125 8.75H10.625V6.875H11.25C11.5815 6.875 11.8995 6.7433 12.1339 6.50888C12.3683 6.27446 12.5 5.95652 12.5 5.625V3.125C12.5 2.79348 12.3683 2.47554 12.1339 2.24112C11.8995 2.0067 11.5815 1.875 11.25 1.875H8.75C8.41848 1.875 8.10054 2.0067 7.86612 2.24112C7.6317 2.47554 7.5 2.79348 7.5 3.125V5.625C7.5 5.95652 7.6317 6.27446 7.86612 6.50888C8.10054 6.7433 8.41848 6.875 8.75 6.875H9.375V8.75H1.875C1.70924 8.75 1.55027 8.81585 1.43306 8.93306C1.31585 9.05027 1.25 9.20924 1.25 9.375C1.25 9.54076 1.31585 9.69973 1.43306 9.81694C1.55027 9.93415 1.70924 10 1.875 10H4.375V12.5H3.75C3.41848 12.5 3.10054 12.6317 2.86612 12.8661C2.6317 13.1005 2.5 13.4185 2.5 13.75V16.25C2.5 16.5815 2.6317 16.8995 2.86612 17.1339C3.10054 17.3683 3.41848 17.5 3.75 17.5H6.25C6.58152 17.5 6.89946 17.3683 7.13388 17.1339C7.3683 16.8995 7.5 16.5815 7.5 16.25V13.75C7.5 13.4185 7.3683 13.1005 7.13388 12.8661C6.89946 12.6317 6.58152 12.5 6.25 12.5H5.625V10H14.375V12.5H13.75C13.4185 12.5 13.1005 12.6317 12.8661 12.8661C12.6317 13.1005 12.5 13.4185 12.5 13.75V16.25C12.5 16.5815 12.6317 16.8995 12.8661 17.1339C13.1005 17.3683 13.4185 17.5 13.75 17.5H16.25C16.5815 17.5 16.8995 17.3683 17.1339 17.1339C17.3683 16.8995 17.5 16.5815 17.5 16.25V13.75C17.5 13.4185 17.3683 13.1005 17.1339 12.8661C16.8995 12.6317 16.5815 12.5 16.25 12.5H15.625V10H18.125C18.2908 10 18.4497 9.93415 18.5669 9.81694C18.6842 9.69973 18.75 9.54076 18.75 9.375C18.75 9.20924 18.6842 9.05027 18.5669 8.93306C18.4497 8.81585 18.2908 8.75 18.125 8.75ZM8.75 3.125H11.25V5.625H8.75V3.125ZM6.25 16.25H3.75V13.75H6.25V16.25ZM16.25 16.25H13.75V13.75H16.25V16.25Z" fill="#D5D8E0"/>
</svg>
