<svg width="33" height="28" viewBox="0 0 33 28" fill="none" xmlns="http://www.w3.org/2000/svg">
<path d="M0 10.1818C0 4.55856 4.55855 0 10.1818 0H22.7699C28.3932 0 32.9517 4.55856 32.9517 10.1818V17.8182C32.9517 23.4414 28.3932 28 22.7699 28H10.1818C4.55855 28 0 23.4414 0 17.8182V10.1818Z" fill="url(#paint0_linear_50_298449)"/>
<path d="M20.5391 18.0147V16.3844H21.832V9.80705H20.5391V8.17676H24.5866C25.9077 8.17676 26.9103 8.51406 27.5942 9.18867C28.2876 9.8539 28.6342 10.8471 28.6342 12.1682V14.0233C28.6342 15.3444 28.2876 16.3423 27.5942 17.0169C26.9103 17.6821 25.9077 18.0147 24.5866 18.0147H20.5391ZM23.6872 16.3282H24.6147C25.3643 16.3282 25.9124 16.1315 26.2591 15.738C26.6057 15.3444 26.7791 14.7916 26.7791 14.0796V12.112C26.7791 11.3905 26.6057 10.8377 26.2591 10.4535C25.9124 10.06 25.3643 9.86327 24.6147 9.86327H23.6872V16.3282Z" fill="white"/>
<path d="M11.8594 14.5575V14.3326C11.8594 13.6018 12.0046 12.9787 12.2951 12.4634C12.5855 11.9387 12.9696 11.5405 13.4475 11.2688C13.9347 10.9877 14.4641 10.8472 15.0356 10.8472C15.6727 10.8472 16.1552 10.9596 16.4832 11.1845C16.8111 11.4093 17.05 11.6436 17.1999 11.8872H17.4529V11.0439H19.1956V19.2516C19.1956 19.7295 19.0551 20.1089 18.774 20.39C18.4929 20.6805 18.1181 20.8257 17.6497 20.8257H12.9837V19.2797H17.0313C17.2936 19.2797 17.4248 19.1392 17.4248 18.8581V17.0451H17.1718C17.0781 17.195 16.947 17.3496 16.7783 17.5089C16.6097 17.6588 16.3848 17.7853 16.1037 17.8884C15.8226 17.9914 15.4666 18.043 15.0356 18.043C14.4641 18.043 13.9347 17.9071 13.4475 17.6354C12.9696 17.3543 12.5855 16.9561 12.2951 16.4408C12.0046 15.9161 11.8594 15.2883 11.8594 14.5575ZM15.5415 16.497C16.085 16.497 16.5394 16.3236 16.9048 15.977C17.2702 15.6303 17.4529 15.1431 17.4529 14.5153V14.3748C17.4529 13.7377 17.2702 13.2504 16.9048 12.9131C16.5488 12.5665 16.0943 12.3931 15.5415 12.3931C14.9981 12.3931 14.5437 12.5665 14.1783 12.9131C13.8129 13.2504 13.6302 13.7377 13.6302 14.3748V14.5153C13.6302 15.1431 13.8129 15.6303 14.1783 15.977C14.5437 16.3236 14.9981 16.497 15.5415 16.497Z" fill="white"/>
<path d="M3.81641 18.0147V11.0438H5.55911V11.9574H5.81209C5.92452 11.7138 6.13533 11.4842 6.44452 11.2687C6.75371 11.0438 7.22218 10.9314 7.84993 10.9314C8.39336 10.9314 8.86651 11.0579 9.2694 11.3109C9.68165 11.5545 10.0002 11.8965 10.2251 12.3368C10.4499 12.7678 10.5624 13.2738 10.5624 13.8547V18.0147H8.79156V13.9952C8.79156 13.4705 8.66038 13.077 8.39804 12.8147C8.14507 12.5523 7.77966 12.4211 7.30182 12.4211C6.7584 12.4211 6.33677 12.6039 6.03695 12.9693C5.73713 13.3253 5.58722 13.8266 5.58722 14.4731V18.0147H3.81641Z" fill="white"/>
<defs>
<linearGradient id="paint0_linear_50_298449" x1="3.70951e-07" y1="2.22727" x2="22.2727" y2="30.2273" gradientUnits="userSpaceOnUse">
<stop stop-color="#FE31D8"/>
<stop offset="1" stop-color="#820DF0"/>
</linearGradient>
</defs>
</svg>
