<svg width="12" height="12" viewBox="0 0 12 12" fill="none" xmlns="http://www.w3.org/2000/svg">
<path d="M5.4375 1.6875V0.9375C5.4375 0.788316 5.49676 0.645242 5.60225 0.539752C5.70774 0.434263 5.85082 0.375 6 0.375C6.14918 0.375 6.29226 0.434263 6.39775 0.539752C6.50324 0.645242 6.5625 0.788316 6.5625 0.9375V1.6875C6.5625 1.83668 6.50324 1.97976 6.39775 2.08525C6.29226 2.19074 6.14918 2.25 6 2.25C5.85082 2.25 5.70774 2.19074 5.60225 2.08525C5.49676 1.97976 5.4375 1.83668 5.4375 1.6875ZM9.1875 6C9.1875 6.63043 9.00056 7.2467 8.65031 7.77088C8.30006 8.29506 7.80224 8.70361 7.2198 8.94487C6.63736 9.18612 5.99646 9.24924 5.37815 9.12625C4.75984 9.00326 4.19188 8.69968 3.7461 8.2539C3.30032 7.80812 2.99674 7.24016 2.87375 6.62185C2.75076 6.00354 2.81388 5.36264 3.05513 4.7802C3.29639 4.19776 3.70494 3.69994 4.22912 3.34969C4.7533 2.99944 5.36957 2.8125 6 2.8125C6.84511 2.81337 7.65536 3.14947 8.25294 3.74706C8.85053 4.34464 9.18663 5.15489 9.1875 6ZM8.0625 6C8.0625 5.59208 7.94154 5.19331 7.71491 4.85414C7.48828 4.51496 7.16616 4.2506 6.78928 4.0945C6.41241 3.93839 5.99771 3.89755 5.59763 3.97713C5.19754 4.05671 4.83004 4.25315 4.54159 4.54159C4.25315 4.83004 4.05671 5.19754 3.97713 5.59763C3.89755 5.99771 3.93839 6.41241 4.0945 6.78928C4.2506 7.16616 4.51496 7.48828 4.85414 7.71491C5.19331 7.94154 5.59208 8.0625 6 8.0625C6.54682 8.06188 7.07106 7.84438 7.45772 7.45772C7.84438 7.07106 8.06188 6.54682 8.0625 6ZM2.41453 3.21047C2.46685 3.26279 2.52897 3.3043 2.59734 3.33261C2.6657 3.36093 2.73897 3.37551 2.81297 3.37551C2.88697 3.37551 2.96024 3.36093 3.0286 3.33261C3.09697 3.3043 3.15908 3.26279 3.21141 3.21047C3.26373 3.15815 3.30524 3.09603 3.33355 3.02766C3.36187 2.9593 3.37644 2.88603 3.37644 2.81203C3.37644 2.73803 3.36187 2.66476 3.33355 2.5964C3.30524 2.52803 3.26373 2.46592 3.21141 2.41359L2.64891 1.85109C2.54323 1.74542 2.39991 1.68606 2.25047 1.68606C2.10103 1.68606 1.9577 1.74542 1.85203 1.85109C1.74636 1.95677 1.68699 2.10009 1.68699 2.24953C1.68699 2.39897 1.74636 2.5423 1.85203 2.64797L2.41453 3.21047ZM2.41453 8.78859L1.85203 9.35109C1.79971 9.40342 1.7582 9.46553 1.72988 9.5339C1.70157 9.60226 1.68699 9.67554 1.68699 9.74953C1.68699 9.82353 1.70157 9.8968 1.72988 9.96516C1.7582 10.0335 1.79971 10.0956 1.85203 10.148C1.9577 10.2536 2.10103 10.313 2.25047 10.313C2.32447 10.313 2.39774 10.2984 2.4661 10.2701C2.53447 10.2418 2.59658 10.2003 2.64891 10.148L3.21141 9.58547C3.31708 9.4798 3.37644 9.33647 3.37644 9.18703C3.37644 9.03759 3.31708 8.89427 3.21141 8.78859C3.10573 8.68292 2.96241 8.62356 2.81297 8.62356C2.66353 8.62356 2.5202 8.68292 2.41453 8.78859ZM9.1875 3.375C9.26139 3.37506 9.33457 3.36056 9.40285 3.33233C9.47114 3.3041 9.53319 3.26269 9.58547 3.21047L10.148 2.64797C10.2003 2.59565 10.2418 2.53353 10.2701 2.46516C10.2984 2.3968 10.313 2.32353 10.313 2.24953C10.313 2.17553 10.2984 2.10226 10.2701 2.0339C10.2418 1.96553 10.2003 1.90342 10.148 1.85109C10.0956 1.79877 10.0335 1.75726 9.96516 1.72895C9.8968 1.70063 9.82353 1.68606 9.74953 1.68606C9.67554 1.68606 9.60226 1.70063 9.5339 1.72895C9.46553 1.75726 9.40342 1.79877 9.35109 1.85109L8.78859 2.41359C8.70946 2.49227 8.65551 2.5927 8.63361 2.70212C8.61171 2.81155 8.62286 2.92501 8.66562 3.02808C8.70839 3.13115 8.78084 3.21917 8.87377 3.28095C8.96671 3.34272 9.07591 3.37546 9.1875 3.375ZM9.58547 8.78953C9.4798 8.68386 9.33647 8.62449 9.18703 8.62449C9.03759 8.62449 8.89427 8.68386 8.78859 8.78953C8.68292 8.8952 8.62356 9.03853 8.62356 9.18797C8.62356 9.33741 8.68292 9.48073 8.78859 9.58641L9.35109 10.1489C9.45677 10.2546 9.60009 10.3139 9.74953 10.3139C9.89897 10.3139 10.0423 10.2546 10.148 10.1489C10.2536 10.0432 10.313 9.89991 10.313 9.75047C10.313 9.60103 10.2536 9.4577 10.148 9.35203L9.58547 8.78953ZM2.25 6C2.25 5.85082 2.19074 5.70774 2.08525 5.60225C1.97976 5.49676 1.83668 5.4375 1.6875 5.4375H0.9375C0.788316 5.4375 0.645242 5.49676 0.539752 5.60225C0.434263 5.70774 0.375 5.85082 0.375 6C0.375 6.14918 0.434263 6.29226 0.539752 6.39775C0.645242 6.50324 0.788316 6.5625 0.9375 6.5625H1.6875C1.83668 6.5625 1.97976 6.50324 2.08525 6.39775C2.19074 6.29226 2.25 6.14918 2.25 6ZM6 9.75C5.85082 9.75 5.70774 9.80926 5.60225 9.91475C5.49676 10.0202 5.4375 10.1633 5.4375 10.3125V11.0625C5.4375 11.2117 5.49676 11.3548 5.60225 11.4602C5.70774 11.5657 5.85082 11.625 6 11.625C6.14918 11.625 6.29226 11.5657 6.39775 11.4602C6.50324 11.3548 6.5625 11.2117 6.5625 11.0625V10.3125C6.5625 10.1633 6.50324 10.0202 6.39775 9.91475C6.29226 9.80926 6.14918 9.75 6 9.75ZM11.0625 5.4375H10.3125C10.1633 5.4375 10.0202 5.49676 9.91475 5.60225C9.80926 5.70774 9.75 5.85082 9.75 6C9.75 6.14918 9.80926 6.29226 9.91475 6.39775C10.0202 6.50324 10.1633 6.5625 10.3125 6.5625H11.0625C11.2117 6.5625 11.3548 6.50324 11.4602 6.39775C11.5657 6.29226 11.625 6.14918 11.625 6C11.625 5.85082 11.5657 5.70774 11.4602 5.60225C11.3548 5.49676 11.2117 5.4375 11.0625 5.4375Z" fill="black"/>
</svg>
