<svg xmlns="http://www.w3.org/2000/svg" width="20" height="20" viewBox="0 0 20 20" fill="none">
  <path d="M12.5 8.75H16.25C16.5815 8.75 16.8995 8.6183 17.1339 8.38388C17.3683 8.14946 17.5 7.83152 17.5 7.5V3.75C17.5 3.41848 17.3683 3.10054 17.1339 2.86612C16.8995 2.6317 16.5815 2.5 16.25 2.5H12.5C12.1685 2.5 11.8505 2.6317 11.6161 2.86612C11.3817 3.10054 11.25 3.41848 11.25 3.75V5H10C9.50272 5 9.02581 5.19754 8.67417 5.54917C8.32254 5.90081 8.125 6.37772 8.125 6.875V9.375H5.625V8.75C5.625 8.41848 5.4933 8.10054 5.25888 7.86612C5.02446 7.6317 4.70652 7.5 4.375 7.5H1.875C1.54348 7.5 1.22554 7.6317 0.991117 7.86612C0.756696 8.10054 0.625 8.41848 0.625 8.75V11.25C0.625 11.5815 0.756696 11.8995 0.991117 12.1339C1.22554 12.3683 1.54348 12.5 1.875 12.5H4.375C4.70652 12.5 5.02446 12.3683 5.25888 12.1339C5.4933 11.8995 5.625 11.5815 5.625 11.25V10.625H8.125V13.125C8.125 13.6223 8.32254 14.0992 8.67417 14.4508C9.02581 14.8025 9.50272 15 10 15H11.25V16.25C11.25 16.5815 11.3817 16.8995 11.6161 17.1339C11.8505 17.3683 12.1685 17.5 12.5 17.5H16.25C16.5815 17.5 16.8995 17.3683 17.1339 17.1339C17.3683 16.8995 17.5 16.5815 17.5 16.25V12.5C17.5 12.1685 17.3683 11.8505 17.1339 11.6161C16.8995 11.3817 16.5815 11.25 16.25 11.25H12.5C12.1685 11.25 11.8505 11.3817 11.6161 11.6161C11.3817 11.8505 11.25 12.1685 11.25 12.5V13.75H10C9.83424 13.75 9.67527 13.6842 9.55806 13.5669C9.44085 13.4497 9.375 13.2908 9.375 13.125V6.875C9.375 6.70924 9.44085 6.55027 9.55806 6.43306C9.67527 6.31585 9.83424 6.25 10 6.25H11.25V7.5C11.25 7.83152 11.3817 8.14946 11.6161 8.38388C11.8505 8.6183 12.1685 8.75 12.5 8.75ZM4.375 11.25H1.875V8.75H4.375V11.25ZM12.5 12.5H16.25V16.25H12.5V12.5ZM12.5 3.75H16.25V7.5H12.5V3.75Z" fill="#D5D8E0"/>
</svg>
